<svg xmlns="http://www.w3.org/2000/svg" width="83.968" height="120.489" viewBox="0 0 83.968 120.489">
  <g id="icone_bougie" data-name="icone bougie" transform="translate(-1392.23 -1302.49)">
    <path id="Tracé_119" data-name="Tracé 119" d="M1392.23,1334.384v71.96s21.1,10.407,42.091,10.407,41.877-10.407,41.877-10.407v-71.96s-20.885,7.172-41.877,7.172S1392.23,1334.384,1392.23,1334.384Z" transform="translate(0 6.228)" fill="#582e7c"/>
    <path id="Tracé_120" data-name="Tracé 120" d="M1479.077,1336.089s-17.328,10.519-38.32,10.519-45.648-10.519-45.648-10.519,23.41-10.439,44.4-10.439S1479.077,1336.089,1479.077,1336.089Z" transform="translate(-2.879 4.523)" fill="#c6a6e2"/>
    <path id="Tracé_122" data-name="Tracé 122" d="M243.407,997.819s-5.563,4.242-6.452,10.6.164,8.345,4.326,10.244a11.1,11.1,0,0,0,13.257-3.473c3.314-4.392,3.593-6.483,2.832-11-.592-3.619-4.883-8.1-7.023-12.278-2-3.9-2.471-10.451-2.471-10.451s-4.376,4.011-3.653,8.522c.4,2.5,1.753,5.929,1.97,7.824.59,5.163-.287,7.925-2.786,7.678S243.407,997.819,243.407,997.819Z" transform="translate(1187.022 321.024)" fill="#e8810a"/>
    <path id="Tracé_123" data-name="Tracé 123" d="M1418.546,1360a115.965,115.965,0,0,0,20.613,2.391A67.375,67.375,0,0,0,1456.6,1360v28.166a61.782,61.782,0,0,1-16.986,2.391c-9.513,0-21.065-2.391-21.065-2.391Z" transform="translate(-2.395 11.23)" fill="#e5cce0"/>
  </g>
</svg>
