<svg xmlns="http://www.w3.org/2000/svg" width="91.291" height="76.561" viewBox="0 0 91.291 76.561">
  <g id="icone_cire" data-name="icone cire" transform="translate(-306.78 -1334.384)">
    <path id="Tracé_112" data-name="Tracé 112" d="M266.259,1379.548c-7.672,4.273-4.213,10.839,0,17.092s10.705,7.923,16.851,7.923,7.732-7.923,7.732-7.923,6.146-12.819,0-17.092S273.931,1375.275,266.259,1379.548Z" transform="translate(45.069 3.006)" fill="#e5cce0"/>
    <path id="Tracé_113" data-name="Tracé 113" d="M265.355,1378.939c-6.147,3.461-3.375,8.78,0,13.845s8.577,6.418,13.5,6.418,6.195-6.418,6.195-6.418,4.924-10.384,0-13.845S271.5,1375.478,265.355,1378.939Z" transform="translate(1798.41 1342.549) rotate(99)" fill="#c6a6e2"/>
    <path id="Tracé_114" data-name="Tracé 114" d="M265.27,1379.253c-6,3.879-3.3,9.839,0,15.515s8.377,7.192,13.186,7.192,6.05-7.192,6.05-7.192,4.809-11.636,0-15.515S271.273,1375.374,265.27,1379.253Z" transform="translate(52 -41.96)" fill="#c6a6e2"/>
    <path id="Tracé_115" data-name="Tracé 115" d="M265.395,1378.754c-6.213,3.214-3.412,8.151,0,12.855s8.67,5.958,13.648,5.958,6.262-5.958,6.262-5.958,4.977-9.641,0-12.855S271.608,1375.54,265.395,1378.754Z" transform="translate(109.789 -32.642)" fill="#582e7c"/>
    <path id="Tracé_116" data-name="Tracé 116" d="M264.669,1378.3c-4.989,2.609-2.74,6.618,0,10.436s6.962,4.838,10.958,4.838,5.028-4.838,5.028-4.838,4-7.827,0-10.436S269.658,1375.691,264.669,1378.3Z" transform="translate(79.069 -11.419)" fill="#582e7c"/>
  </g>
</svg>
