<svg xmlns="http://www.w3.org/2000/svg" width="148.674" height="139.843" viewBox="0 0 148.674 139.843">
  <g id="icone_écolo" data-name="icone écolo" transform="translate(-1356.215 -1299.157)">
    <path id="Tracé_1047" data-name="Tracé 1047" d="M18.51,103.158A64.113,64.113,0,0,1,5.867,87.072C1.5,78.853-.2,68,.018,67.133c.458-1.813,14.232,0,14.232,0S-.111,62.759.018,60.232A157.454,157.454,0,0,1,8.825,27.439C14.482,13.193,23.56-.315,24.865.005,27.547.663,47.9,34.444,46.31,60.232S18.51,103.158,18.51,103.158Z" transform="translate(1356.215 1328.094) rotate(-21)" fill="#c6a6e2"/>
    <path id="Tracé_1043" data-name="Tracé 1043" d="M21.414,119.343A74.173,74.173,0,0,1,6.788,100.734C1.737,91.225-.231,78.666.021,77.666c.53-2.1,16.465,0,16.465,0S-.129,72.606.021,69.682A182.158,182.158,0,0,1,10.21,31.744C16.754,15.263,27.256-.364,28.767.006c3.1.761,26.647,39.842,24.809,69.676S21.414,119.343,21.414,119.343Z" transform="translate(1435.987 1299.158) rotate(22)" fill="#e5cce0"/>
    <path id="Tracé_1044" data-name="Tracé 1044" d="M32.985,42.389s-12.4-1.383-14.709-8.195,3.176-15.139,3.176-15.139l11.533,3.829L24.483,0,0,11.213l11.919,4.14S.592,29.365,5.328,37.585c1.918,3.329,5.241,8.536,12.948,9.579C25.933,47.782,32.985,42.389,32.985,42.389Z" transform="matrix(0.559, 0.829, -0.829, 0.559, 1428.174, 1318.722)" fill="#582e7c"/>
    <path id="Tracé_1045" data-name="Tracé 1045" d="M18.157,101.194a62.893,62.893,0,0,1-12.4-15.779C1.473,77.352-.2,66.7.018,65.855c.449-1.778,13.961,0,13.961,0S-.109,61.564.018,59.085A154.467,154.467,0,0,1,8.657,26.917C14.206,12.942,23.112-.309,24.392.005c2.63.646,22.595,33.783,21.036,59.08S18.157,101.194,18.157,101.194Z" transform="translate(1475.028 1338.26) rotate(49)" fill="#c6a6e2"/>
    <path id="Tracé_1046" data-name="Tracé 1046" d="M32.985,42.389s-12.4-1.383-14.709-8.195,3.176-15.139,3.176-15.139l11.533,3.829L24.483,0,0,11.213l11.919,4.14S.592,29.365,5.328,37.585c1.918,3.329,5.241,8.536,12.948,9.579C25.933,47.782,32.985,42.389,32.985,42.389Z" transform="matrix(-0.545, -0.839, 0.839, -0.545, 1430.784, 1401.278)" fill="#582e7c"/>
  </g>
</svg>
